<?xml version="1.0" encoding="UTF-8"?>
<svg version="1.1" xmlns="http://www.w3.org/2000/svg" width="300" height="88">
<path d="M0 0 C9.71447591 6.96117525 16.15293953 17.04033064 18.6875 28.75 C20.47543723 41.57891041 17.46848667 53.67084324 9.9296875 64.19140625 C3.48037605 72.09556238 -5.68201498 78.11921575 -15.75 80.25 C-31.3393596 81.61352826 -43.4581341 79.43902465 -55.75 69.25 C-62.4761844 63.14075869 -68.12727979 53.36962454 -68.92700195 44.22631836 C-69.37892842 28.47010913 -67.50924425 17.51630151 -56.75 5.25 C-41.13646612 -9.67144461 -18.16120875 -11.11538863 0 0 Z M-56.6328125 11.3828125 C-63.84551378 21.49509219 -66.01680605 31.9514246 -64.75 44.25 C-62.6794938 54.24019241 -56.77793596 63.7385869 -48.4375 69.6875 C-37.77301254 75.95538446 -26.82729619 78.42766224 -14.55859375 75.484375 C-9.46740421 73.7388243 -5.0375625 71.54045494 -0.75 68.25 C0.24 67.54875 1.23 66.8475 2.25 66.125 C9.47206784 59.94548789 13.72838593 50.03927216 14.56640625 40.73828125 C14.90726474 29.8637958 12.95141009 20.98214042 6.25 12.25 C5.54875 11.26 4.8475 10.27 4.125 9.25 C-2.05451211 2.02793216 -11.96072784 -2.22838593 -21.26171875 -3.06640625 C-35.28022957 -3.50581357 -47.14521564 0.63545174 -56.6328125 11.3828125 Z " fill="#000000" transform="translate(68.75,6.75)"/>
<path d="M0 0 C0.53367188 0.46277344 1.06734375 0.92554688 1.6171875 1.40234375 C1.6171875 2.06234375 1.6171875 2.72234375 1.6171875 3.40234375 C2.2771875 3.40234375 2.9371875 3.40234375 3.6171875 3.40234375 C10.04345123 10.81313256 13.3303386 19.91008965 12.9609375 29.69921875 C11.60095377 40.39363627 7.80105236 49.17249522 -0.484375 56.1796875 C-8.53836094 61.99961727 -17.48736517 64.52752701 -27.3828125 63.40234375 C-39.05528278 61.11397192 -47.40308349 54.94494201 -54.3828125 45.40234375 C-59.07974562 34.21088583 -59.91608544 24.66631583 -55.3828125 13.40234375 C-51.3017768 4.25471612 -44.95533221 -1.60373239 -35.8359375 -5.7578125 C-22.97249786 -10.16169709 -10.99157171 -7.4735081 0 0 Z M-46.9375 5.08203125 C-53.36830167 13.04854675 -56.1115718 20.96603512 -55.7734375 31.21875 C-54.89568156 38.37246089 -51.82733476 44.77261556 -47.3828125 50.40234375 C-46.7228125 50.40234375 -46.0628125 50.40234375 -45.3828125 50.40234375 C-45.3828125 51.06234375 -45.3828125 51.72234375 -45.3828125 52.40234375 C-43.34260295 53.93430229 -43.34260295 53.93430229 -40.7578125 55.40234375 C-39.89929687 55.91796875 -39.04078125 56.43359375 -38.15625 56.96484375 C-30.37420561 60.99835408 -22.13675643 61.82267213 -13.59765625 59.71484375 C-3.42682786 55.94204806 2.92983883 50.19502123 7.6171875 40.40234375 C10.68128636 32.55321379 10.94020033 24.037195 7.9921875 16.08984375 C3.31449184 6.06853049 -2.94757556 0.3048694 -13.3046875 -3.73828125 C-25.02383069 -7.01012326 -38.53185975 -3.99943937 -46.9375 5.08203125 Z " fill="#000000" transform="translate(66.3828125,15.59765625)"/>
<path d="M0 0 C7.92 0 15.84 0 24 0 C24 2.31 24 4.62 24 7 C18.39 7 12.78 7 7 7 C7 11.29 7 15.58 7 20 C9.02125 19.896875 11.0425 19.79375 13.125 19.6875 C20.6672697 19.72036392 20.6672697 19.72036392 23.75 21.9375 C26.67566648 25.91965715 27.52803101 29.08325227 27 34 C24.79326205 38.49520693 23.52802342 39.73598829 19 42 C12.73 42 6.46 42 0 42 C0 28.14 0 14.28 0 0 Z M7 23 C7 28.28 7 33.56 7 39 C14.34428882 39.5522879 14.34428882 39.5522879 21.125 37.375 C23.49034347 34.37889827 24.15334666 32.83366656 24 29 C22.17739846 25.26208539 22.17739846 25.26208539 19 23 C14.86576879 22.48456338 11.19337369 22.72351382 7 23 Z " fill="#000000" transform="translate(30,26)"/>
<path d="M0 0 C1.98 0 3.96 0 6 0 C8.3359375 2.40625 8.3359375 2.40625 10.375 5.5 C11.06335938 6.5209375 11.75171875 7.541875 12.4609375 8.59375 C12.96882813 9.3878125 13.47671875 10.181875 14 11 C14.33 7.37 14.66 3.74 15 0 C16.98 0 18.96 0 21 0 C21 7.92 21 15.84 21 24 C19.02 24 17.04 24 15 24 C12.6640625 21.59375 12.6640625 21.59375 10.625 18.5 C9.93664062 17.4790625 9.24828125 16.458125 8.5390625 15.40625 C7.77722656 14.21515625 7.77722656 14.21515625 7 13 C6.67 16.63 6.34 20.26 6 24 C4.02 24 2.04 24 0 24 C0 16.08 0 8.16 0 0 Z " fill="#000000" transform="translate(252,9)"/>
<path d="M0 0 C12.68595625 -0.59280169 12.68595625 -0.59280169 16.078125 0.9375 C17.4375 2.1875 17.4375 2.1875 19 5 C18.8125 7.6875 18.8125 7.6875 18 10 C17.81509993 12.32357511 17.81509993 12.32357511 20 15 C19.81620015 17.94079758 19.52667711 20.15058467 17.9609375 22.67578125 C14.82699213 24.79213081 11.45088849 24.31048471 7.8125 24.1875 C5.234375 24.125625 2.65625 24.06375 0 24 C0 16.08 0 8.16 0 0 Z M5 5 C5 6.32 5 7.64 5 9 C7.31 9 9.62 9 12 9 C12 8.01 12 7.02 12 6 C10.87465895 4.64381501 10.87465895 4.64381501 7.9375 4.9375 C6.968125 4.958125 5.99875 4.97875 5 5 Z M5 14 C5 15.65 5 17.3 5 19 C9.65052872 19.26932521 9.65052872 19.26932521 14 18 C13.34 16.68 12.68 15.36 12 14 C9.69 14 7.38 14 5 14 Z " fill="#000000" transform="translate(203,9)"/>
<path d="M0 0 C13.21813917 -0.49413604 13.21813917 -0.49413604 16.9296875 1.8515625 C19 4 19 4 19.4375 6.625 C19 9 19 9 17 11 C17.495 11.556875 17.99 12.11375 18.5 12.6875 C20.30684791 15.4730572 20.57035173 16.74084723 20 20 C18.48828125 22.140625 18.48828125 22.140625 16 24 C13.07545478 24.29362904 10.64493292 24.38195943 7.75 24.25 C5.1925 24.1675 2.635 24.085 0 24 C0 16.08 0 8.16 0 0 Z M5 5 C5 6.32 5 7.64 5 9 C7.31 9 9.62 9 12 9 C12.33 8.01 12.66 7.02 13 6 C10.29120665 4.64560332 7.99066732 4.93498549 5 5 Z M5 14 C5 15.65 5 17.3 5 19 C7.64 19 10.28 19 13 19 C13.33 17.68 13.66 16.36 14 15 C11.04335481 13.5216774 8.25770263 13.93967217 5 14 Z " fill="#000000" transform="translate(128,9)"/>
<path d="M0 0 C13.20481374 -0.4936379 13.20481374 -0.4936379 16.89453125 1.796875 C19.76860186 4.8042513 20 6.89033262 20 11 C18.5 13.1875 18.5 13.1875 17 15 C17.10417827 17.00339546 17.10417827 17.00339546 18 19 C18.350625 19.9075 18.70125 20.815 19.0625 21.75 C19.5265625 22.86375 19.5265625 22.86375 20 24 C16.75 24.375 16.75 24.375 13 24 C10.75 21.0625 10.75 21.0625 9 18 C8.01 17.67 7.02 17.34 6 17 C6 19.31 6 21.62 6 24 C4.02 24 2.04 24 0 24 C0 16.08 0 8.16 0 0 Z M6 6 C6 7.65 6 9.3 6 11 C8.31 11 10.62 11 13 11 C13.59070014 9.05396726 13.59070014 9.05396726 14 7 C12.81575674 5.58422523 12.81575674 5.58422523 9.4375 5.9375 C7.7359375 5.9684375 7.7359375 5.9684375 6 6 Z " fill="#000000" transform="translate(150,9)"/>
<path d="M0 0 C14.74285714 0 14.74285714 0 20.375 5.1875 C22.53568964 8.92715514 22.69348508 11.77915872 22 16 C20.6855912 19.28602199 19.42770592 20.67359285 16.625 22.8125 C11.0501142 24.63875569 5.84877923 24.17904426 0 24 C0 16.08 0 8.16 0 0 Z M6 6 C6 10.29 6 14.58 6 19 C10.68887596 18.59769436 10.68887596 18.59769436 15 16.875 C16.6448094 13.79098238 15.77769676 11.29025552 15 8 C13.04366025 5.58878141 13.04366025 5.58878141 9.375 5.875 C7.704375 5.936875 7.704375 5.936875 6 6 Z " fill="#000000" transform="translate(277,9)"/>
<path d="M0 0 C6.27 0 12.54 0 19 0 C19 1.65 19 3.3 19 5 C18 6 18 6 15.27734375 6.09765625 C13.62412109 6.08025391 13.62412109 6.08025391 11.9375 6.0625 C10.28041016 6.04896484 10.28041016 6.04896484 8.58984375 6.03515625 C7.73519531 6.02355469 6.88054687 6.01195312 6 6 C6 6.99 6 7.98 6 9 C9.63 9 13.26 9 17 9 C17 10.98 17 12.96 17 15 C13.37 15 9.74 15 6 15 C6 16.32 6 17.64 6 19 C10.29 19 14.58 19 19 19 C19 20.65 19 22.3 19 24 C12.73 24 6.46 24 0 24 C0 16.08 0 8.16 0 0 Z " fill="#000000" transform="translate(172,9)"/>
<path d="M0 0 C3.15689734 1.60714774 5.19415756 2.97438234 7.375 5.75 C8.83243811 10.99677719 8.72165056 14.65623688 6.1875 19.375 C3.91262233 22.10485321 2.30924564 23.78592369 -1.26953125 24.37109375 C-8.98271423 24.57251327 -8.98271423 24.57251327 -12.5 21.75 C-16.11819213 17.76998866 -17.02574332 16.59608596 -16.9375 11.125 C-16.23370069 6.53313866 -14.24553757 4.24553757 -11 1 C-7.52817697 -0.73591152 -3.79591036 -0.46571673 0 0 Z M-8.75 7.125 C-11.32099389 9.80169711 -11.32099389 9.80169711 -11 13.125 C-9.83814815 16.76308946 -9.83814815 16.76308946 -7 19 C-3.42243314 19.00082535 -3.42243314 19.00082535 0 18 C2.33043558 14.50434664 2.58763244 13.1134271 2 9 C-0.20488259 6.53583866 -0.20488259 6.53583866 -3 5 C-6.18358411 4.69427625 -6.18358411 4.69427625 -8.75 7.125 Z " fill="#000000" transform="translate(241,9)"/>
<path d="M0 0 C6.27 0 12.54 0 19 0 C19 1.98 19 3.96 19 6 C14.71 6 10.42 6 6 6 C6 7.32 6 8.64 6 10 C9.63 10 13.26 10 17 10 C17 11.65 17 13.3 17 15 C13.37 15 9.74 15 6 15 C6 17.97 6 20.94 6 24 C4.02 24 2.04 24 0 24 C0 16.08 0 8.16 0 0 Z " fill="#000000" transform="translate(97,9)"/>
<path d="M0 0 C1.32 0 2.64 0 4 0 C5.62772798 2.16238316 6.93663803 4.16026997 8.25 6.5 C8.79527344 7.43005859 8.79527344 7.43005859 9.3515625 8.37890625 C10.24760591 9.91161208 11.12555747 11.45486854 12 13 C12.33 8.71 12.66 4.42 13 0 C14.32 0 15.64 0 17 0 C17 7.59 17 15.18 17 23 C12 22 12 22 9.76171875 19.05859375 C9.05383767 17.86115005 8.36282672 16.65360068 7.6875 15.4375 C7.32849609 14.82197266 6.96949219 14.20644531 6.59960938 13.57226562 C5.71841217 12.05660643 4.85720523 10.52935624 4 9 C3.67 13.62 3.34 18.24 3 23 C2.01 23 1.02 23 0 23 C0 15.41 0 7.82 0 0 Z " fill="#000000" transform="translate(119,55)"/>
<path d="M0 0 C12.82142857 0 12.82142857 0 17 3 C19.42345427 5.97423933 19.36186865 9.27747915 19.25 13.0390625 C18.74381886 17.00942079 16.88500435 19.19796481 14 21.8125 C11 23 11 23 0 23 C0 15.41 0 7.82 0 0 Z M4 3 C4 8.61 4 14.22 4 20 C10.50276388 19.58467123 10.50276388 19.58467123 13.4375 17.375 C15.61706935 14.06205459 15.48624383 11.88995066 15 8 C14.16666667 5.5 14.16666667 5.5 12 4 C9.36 3.67 6.72 3.34 4 3 Z " fill="#000000" transform="translate(141,55)"/>
<path d="M0 0 C10 0 10 0 14 3 C14.40373601 6.16259871 14.54458662 8.14012639 12.8125 10.875 C11.59185898 14.06744575 12.95704496 16.16188622 14.2734375 19.1953125 C15 21 15 21 15 23 C13.68 23 12.36 23 11 23 C10.82984375 22.44570312 10.6596875 21.89140625 10.484375 21.3203125 C10.24203125 20.59585938 9.9996875 19.87140625 9.75 19.125 C9.40195313 18.04605469 9.40195313 18.04605469 9.046875 16.9453125 C7.97609944 14.50830866 7.97609944 14.50830866 4 13 C4 16.3 4 19.6 4 23 C2.68 23 1.36 23 0 23 C0 15.41 0 7.82 0 0 Z M4 3 C4 5.31 4 7.62 4 10 C5.66611905 10.042721 7.33382885 10.04063832 9 10 C10.29633621 8.93354885 10.29633621 8.93354885 10.0625 6.4375 C10.041875 5.633125 10.02125 4.82875 10 4 C7.03 3.505 7.03 3.505 4 3 Z " fill="#000000" transform="translate(222,55)"/>
<path d="M0 0 C1.32 0 2.64 0 4 0 C4.04898438 1.20398437 4.09796875 2.40796875 4.1484375 3.6484375 C4.22346343 5.22398198 4.29901133 6.79950166 4.375 8.375 C4.4059375 9.1690625 4.436875 9.963125 4.46875 10.78125 C4.51816421 15.36667375 4.51816421 15.36667375 7 19 C8.65 18.67 10.3 18.34 12 18 C12.495 9.09 12.495 9.09 13 0 C14.32 0 15.64 0 17 0 C17.13539281 2.89740622 17.23426829 5.78845621 17.3125 8.6875 C17.35439453 9.50412109 17.39628906 10.32074219 17.43945312 11.16210938 C17.52871915 15.57185097 17.43866257 17.41735465 14.703125 21.05078125 C11.19088253 23.58345321 9.2440687 23.61731908 5 23 C1.8149643 21.23984869 1.16703028 20.50109084 0 17 C-0.07973476 15.66474283 -0.10771338 14.32587917 -0.09765625 12.98828125 C-0.09443359 12.23095703 -0.09121094 11.47363281 -0.08789062 10.69335938 C-0.07951172 9.90767578 -0.07113281 9.12199219 -0.0625 8.3125 C-0.05798828 7.51521484 -0.05347656 6.71792969 -0.04882812 5.89648438 C-0.0370585 3.93095743 -0.01912348 1.96546915 0 0 Z " fill="#000000" transform="translate(164,55)"/>
<path d="M0 0 C4.29 0 8.58 0 13 0 C13 0.99 13 1.98 13 3 C10.03 3 7.06 3 4 3 C4 4.98 4 6.96 4 9 C6.64 9 9.28 9 12 9 C12 10.32 12 11.64 12 13 C9.36 13 6.72 13 4 13 C4 14.98 4 16.96 4 19 C6.97 19 9.94 19 13 19 C13 20.32 13 21.64 13 23 C8.71 23 4.42 23 0 23 C0 15.41 0 7.82 0 0 Z " fill="#000000" transform="translate(250,55)"/>
<path d="M0 0 C1.8871875 0.061875 1.8871875 0.061875 3.8125 0.125 C3.8125 1.445 3.8125 2.765 3.8125 4.125 C1.1725 4.125 -1.4675 4.125 -4.1875 4.125 C-3.43332878 6.47131048 -2.69753582 7.83389465 -0.53125 9.0703125 C0.0978125 9.37710938 0.726875 9.68390625 1.375 10 C4.27886613 11.54913361 4.69699973 11.83928881 6 15.0625 C5.8125 18.125 5.8125 18.125 4.375 21 C1.63851086 23.26928368 1.0565227 23.45090677 -2.3125 23.5 C-6.1875 23.125 -6.1875 23.125 -8.1875 22.125 C-7.8575 20.805 -7.5275 19.485 -7.1875 18.125 C-6.23875 18.310625 -5.29 18.49625 -4.3125 18.6875 C-1.28881207 19.41186632 -1.28881207 19.41186632 0.8125 18.125 C0.77294102 16.20190578 0.77294102 16.20190578 -0.1875 14.125 C-3.10416667 12.45833333 -3.10416667 12.45833333 -6.1875 11.125 C-6.8475 10.465 -7.5075 9.805 -8.1875 9.125 C-8 5.625 -8 5.625 -7.1875 2.125 C-4.09861478 0.06574319 -3.47814073 -0.1140374 0 0 Z " fill="#000000" transform="translate(194.1875,54.875)"/>
<path d="M0 0 C0.33 1.32 0.66 2.64 1 4 C-1.31 4 -3.62 4 -6 4 C-6 5.32 -6 6.64 -6 8 C-5.05125 8.45375 -4.1025 8.9075 -3.125 9.375 C0 11 0 11 2 13 C2.66932271 19.13545817 2.66932271 19.13545817 0.5 21.9375 C-3.17083898 23.49760657 -6.01750079 23.25693543 -10 23 C-10.66 22.67 -11.32 22.34 -12 22 C-11.505 20.515 -11.505 20.515 -11 19 C-8.03 19 -5.06 19 -2 19 C-2 17.35 -2 15.7 -2 14 C-2.928125 13.731875 -3.85625 13.46375 -4.8125 13.1875 C-9.40883978 11.47513812 -9.40883978 11.47513812 -11 9 C-11.38601984 5.91184125 -11.47901666 3.89815624 -10 1.125 C-6.74686316 -0.70488947 -3.68609891 -0.18128355 0 0 Z " fill="#000000" transform="translate(278,55)"/>
<path d="M0 0 C5.61 0 11.22 0 17 0 C17 1.32 17 2.64 17 4 C14.69 4 12.38 4 10 4 C10 10.27 10 16.54 10 23 C8.68 23 7.36 23 6 23 C6 16.73 6 10.46 6 4 C4.02 4 2.04 4 0 4 C0 2.68 0 1.36 0 0 Z " fill="#000000" transform="translate(202,55)"/>
<path d="M0 0 C1.98 0 3.96 0 6 0 C6 7.92 6 15.84 6 24 C4.02 24 2.04 24 0 24 C0 16.08 0 8.16 0 0 Z " fill="#000000" transform="translate(118,9)"/>
<path d="M0 0 C1.32 0 2.64 0 4 0 C4 7.59 4 15.18 4 23 C2.68 23 1.36 23 0 23 C0 15.41 0 7.82 0 0 Z " fill="#000000" transform="translate(109,55)"/>
<path d="M0 0 C0.99 0 1.98 0 3 0 C3 7.59 3 15.18 3 23 C2.01 23 1.02 23 0 23 C0 15.41 0 7.82 0 0 Z " fill="#000000" transform="translate(241,55)"/>
<path d="M0 0 C1.125 3.75 1.125 3.75 0 6 C-1.66611905 6.042721 -3.33382885 6.04063832 -5 6 C-6 5 -6 5 -6.0625 2.4375 C-6.041875 1.633125 -6.02125 0.82875 -6 0 C-3.50907189 -1.24546405 -2.58919267 -0.7767578 0 0 Z " fill="#000000" transform="translate(36,19)"/>
</svg>
